<?xml version="1.0" standalone="no"?>
<!DOCTYPE svg PUBLIC "-//W3C//DTD SVG 20010904//EN"
 "http://www.w3.org/TR/2001/REC-SVG-20010904/DTD/svg10.dtd">
<svg version="1.0" xmlns="http://www.w3.org/2000/svg"
 width="433.000000pt" height="433.000000pt" viewBox="0 0 433.000000 433.000000"
 preserveAspectRatio="xMidYMid meet">
<metadata>
Created by potrace 1.14, written by Peter Selinger 2001-2017
</metadata>
<g transform="translate(0.000000,433.000000) scale(0.100000,-0.100000)"
fill="#000000" stroke="none">
<path d="M2570 3432 c0 -585 3 -617 61 -757 57 -138 197 -287 331 -353 206
-101 450 -102 646 -3 141 71 258 188 325 325 73 149 70 128 74 756 l4 565
-238 -237 -238 -238 -245 0 -245 0 -237 237 -238 238 0 -533z m504 -341 c26
-27 31 -39 31 -81 0 -42 -5 -54 -30 -80 -79 -79 -205 -24 -205 88 0 33 40 88
74 103 39 16 97 3 130 -30z m600 0 c26 -27 31 -39 31 -81 0 -42 -5 -54 -30
-80 -79 -79 -205 -24 -205 88 0 33 40 88 74 103 39 16 97 3 130 -30z"/>
<path d="M315 3466 c-193 -90 -193 -341 0 -432 29 -14 69 -24 95 -24 97 0 206
-84 229 -175 8 -31 11 -347 11 -1042 0 -1086 -2 -1051 56 -1165 59 -116 196
-220 326 -247 36 -8 277 -11 760 -9 l708 3 32 33 33 32 0 118 c0 129 -13 169
-72 223 -60 56 -87 64 -247 69 l-149 5 476 357 477 358 2 -565 3 -565 33 -32
32 -33 170 0 170 0 32 33 33 32 3 795 c1 437 -1 795 -5 795 -5 0 -44 -7 -88
-15 -228 -41 -481 17 -690 158 -174 118 -316 314 -376 520 l-22 77 -48 0 c-82
0 -263 -29 -376 -61 -127 -35 -279 -105 -399 -184 -104 -67 -256 -212 -336
-318 l-58 -79 0 344 c0 190 -5 372 -11 407 -31 193 -137 364 -294 477 -162
115 -393 165 -510 110z"/>
</g>
</svg>
